<svg id="Layer_1" data-name="Layer 1" xmlns="http://www.w3.org/2000/svg" xmlns:xlink="http://www.w3.org/1999/xlink" viewBox="0 0 430.18 57"><defs><style>.cls-1{fill:#00398e;}.cls-2{fill:url(#linear-gradient);}</style><linearGradient id="linear-gradient" y1="28.5" x2="65" y2="28.5" gradientUnits="userSpaceOnUse"><stop offset="0" stop-color="#00398e"/><stop offset="0.99" stop-color="#517cbd"/></linearGradient></defs><title>Clear Links Blue</title><path class="cls-1" d="M101.86,5.91c10.87,0,19.51,5.48,23.26,15.2h-7.85c-2.74-6-8.06-9.44-15.41-9.44-10.51,0-18.36,7.64-18.36,20s7.85,19.87,18.36,19.87c7.35,0,12.67-3.38,15.41-9.36h7.85c-3.75,9.65-12.39,15-23.26,15-14,0-25.06-10.51-25.06-25.56S87.82,5.91,101.86,5.91Z" transform="translate(-0.5 -1)"/><path class="cls-1" d="M130.51,3.47h6.56V56.75h-6.56Z" transform="translate(-0.5 -1)"/><path class="cls-1" d="M162.41,57.4c-11.23,0-19.51-7.92-19.51-20.45s8-20.31,19.51-20.31,18.94,8.07,18.94,18.87a34.15,34.15,0,0,1-.22,4H149.59c.51,8,6.12,12.38,12.82,12.38,5.9,0,9.65-3,11.09-7.27h7.05C178.54,51.78,172.2,57.4,162.41,57.4ZM149.66,34.14h24.92c.07-7.7-5.69-11.95-12.46-11.95C155.71,22.19,150.38,26.44,149.66,34.14Z" transform="translate(-0.5 -1)"/><path class="cls-1" d="M204.82,16.64c7.34,0,12.38,3.75,14.69,7.85v-7.2h6.62V56.75h-6.62V49.41c-2.38,4.24-7.49,8-14.76,8-10.52,0-18.65-8.28-18.65-20.52S194.23,16.64,204.82,16.64Zm1.29,5.69c-7.2,0-13.32,5.26-13.32,14.55s6.12,14.76,13.32,14.76,13.4-5.4,13.4-14.69S213.31,22.33,206.11,22.33Z" transform="translate(-0.5 -1)"/><path class="cls-1" d="M240.89,56.75h-6.55V17.29h6.55V23.7c2.23-4.39,6.48-7.13,12.74-7.13v6.77h-1.72c-6.27,0-11,2.81-11,12Z" transform="translate(-0.5 -1)"/><path class="cls-1" d="M287,6.56V51.42h17.57v5.33H280.42V6.56Z" transform="translate(-0.5 -1)"/><path class="cls-1" d="M310.44,6.22a4.5,4.5,0,0,1,3.14-4.07,4.35,4.35,0,0,1,5.64,4.27,4.36,4.36,0,0,1-4.32,4.46A4.41,4.41,0,0,1,310.44,6.22Zm1.08,11.07h6.55V56.75h-6.55Z" transform="translate(-0.5 -1)"/><path class="cls-1" d="M355.22,34.43c0-8.07-4.39-12.17-11-12.17S332.9,26.44,332.9,34.93V56.75h-6.55V17.29h6.55v5.62c2.59-4.11,7.35-6.34,12.68-6.34,9.14,0,16.13,5.62,16.13,16.92V56.75h-6.49Z" transform="translate(-0.5 -1)"/><path class="cls-1" d="M368.11,3.47h6.55V34.79l15.2-17.5H399L380.42,37l18.65,19.8h-8.93L374.66,39.32V56.75h-6.55Z" transform="translate(-0.5 -1)"/><path class="cls-1" d="M416.28,57.4c-9.22,0-15.7-5-16.13-12.24h6.77c.36,3.81,3.74,6.69,9.29,6.69,5.18,0,8.06-2.59,8.06-5.83,0-8.78-23.33-3.67-23.33-18.36,0-6.05,5.69-11,14.47-11S429.89,21.32,430.32,29h-6.55c-.29-4-3.31-6.84-8.57-6.84-4.82,0-7.71,2.3-7.71,5.47,0,9.36,22.9,4.25,23.19,18.36C430.68,52.5,425,57.4,416.28,57.4Z" transform="translate(-0.5 -1)"/><rect class="cls-2" x="23" width="19" height="57"/><rect class="cls-2" width="19" height="57"/><rect class="cls-2" x="46" width="19" height="57"/></svg>