<?xml version="1.0" standalone="no"?>
<!DOCTYPE svg PUBLIC "-//W3C//DTD SVG 20010904//EN"
 "http://www.w3.org/TR/2001/REC-SVG-20010904/DTD/svg10.dtd">
<svg version="1.0" xmlns="http://www.w3.org/2000/svg"
 width="240.000000pt" height="240.000000pt" viewBox="0 0 240.000000 240.000000"
 preserveAspectRatio="xMidYMid meet">

<g transform="translate(0.000000,240.000000) scale(0.100000,-0.100000)"
fill="#000000" stroke="none">
<path d="M490 2063 c0 -4 80 -88 177 -185 l178 -178 102 0 c57 0 103 4 103 9
0 4 -78 88 -173 185 l-173 176 -107 0 c-59 0 -107 -3 -107 -7z"/>
<path d="M1456 2063 c-4 -4 73 -87 171 -185 l178 -178 102 0 c72 0 103 4 103
12 0 6 -77 89 -172 185 l-172 173 -101 0 c-56 0 -105 -3 -109 -7z"/>
<path d="M970 1572 c0 -4 77 -84 170 -177 94 -93 170 -173 170 -177 0 -4 -77
-83 -171 -176 l-170 -168 108 -2 108 -2 178 176 c98 98 176 181 175 186 -2 5
-80 85 -173 178 l-170 170 -112 0 c-62 0 -113 -3 -113 -8z"/>
<path d="M507 1092 c-14 -6 16 -40 156 -180 l173 -172 114 0 113 0 -54 58
c-30 31 -110 112 -179 179 l-125 121 -90 0 c-50 0 -98 -3 -108 -6z"/>
<path d="M1456 1093 c-3 -3 73 -83 168 -179 l174 -174 106 0 c58 0 106 4 106
8 0 4 -78 85 -173 180 l-174 172 -101 -1 c-55 0 -103 -3 -106 -6z"/>
</g>
</svg>
