<svg id="bdaf2c9e-cf94-4b7e-8b89-9d7d887a84fd" data-name="Layer 1" xmlns="http://www.w3.org/2000/svg" viewBox="0 0 717 92.98"><defs><style>.af8892f3-ea7c-4e04-b09c-98be404d2a69{fill:#f08381;}.a2193e19-5399-406a-ae54-5db9709b9f01{fill:#817ea4;}.bb5d48e3-76e1-432d-aec2-84da3fccaa72{fill:#2c2968;}.a63d9647-a574-407b-bc95-f4ae835558c6{fill:#e6302d;}</style></defs><g id="a7cdf936-1b18-41f6-8c0a-bcf219cfd9e7" data-name="coordinate-sport-main"><polygon class="af8892f3-ea7c-4e04-b09c-98be404d2a69" points="53.16 92.98 66.53 92.98 86.42 73.08 73.07 73.08 53.16 92.98"/><polygon class="a2193e19-5399-406a-ae54-5db9709b9f01" points="26.58 66.4 39.94 66.4 59.85 46.49 46.49 46.49 26.58 66.4"/><path class="bb5d48e3-76e1-432d-aec2-84da3fccaa72" d="M140.75,64.92a33.83,33.83,0,0,0,12.37-2.37v4.37a36.28,36.28,0,0,1-12.83,2.37c-9.37,0-20.66-3.82-20.66-22.84s11.28-22.84,20.66-22.84A38.69,38.69,0,0,1,153.12,26v4.37A36.12,36.12,0,0,0,140.75,28c-10,0-16.66,4.64-16.66,18.47S130.74,64.92,140.75,64.92Zm59.73-18.47c0,18.74-11.19,22.84-20.66,22.84s-20.65-4.1-20.65-22.84,11.19-22.84,20.66-22.84S200.48,27.7,200.48,46.45Zm-4.46,0c0-13.93-6.46-18.67-16.19-18.67s-16.2,4.74-16.2,18.67,6.55,18.65,16.2,18.65S196,60.37,196,46.45Zm54.46,0c0,18.74-11.19,22.84-20.66,22.84s-20.66-4.1-20.66-22.84,11.2-22.84,20.66-22.84S250.48,27.7,250.48,46.45Zm-4.46,0c0-13.93-6.46-18.67-16.2-18.67s-16.19,4.74-16.19,18.67,6.55,18.65,16.19,18.65S246,60.37,246,46.45ZM265.51,30.8V68.56h-4.46V27.88A57,57,0,0,1,281.8,23.7v4.37A64.6,64.6,0,0,0,265.51,30.8Zm41.43-7.1a37.61,37.61,0,0,1,12.56,2.09V7.41H324V55.55c0,3.37-1.55,13.74-17.66,13.74-7.46,0-19.56-3-19.56-23.21C286.74,27.61,297.47,23.7,306.94,23.7Zm-.64,41.4c9.84,0,13.2-4.73,13.2-9.37V30.34a33.38,33.38,0,0,0-12.56-2.46c-9.65,0-15.65,4.64-15.65,18.2,0,16.93,8.73,19,15,19ZM336.5,9.5h5v6.74h-5Zm.27,14.92h4.46V68.56h-4.46ZM390.12,39.8V68.56h-4.55V39.8c0-6.46-2.73-11.64-13-11.64a38.94,38.94,0,0,0-14,2.82V68.56h-4.46V28.34A42.53,42.53,0,0,1,373,23.61C383.84,23.61,390.12,29.07,390.12,39.8Zm46.25,2.37V55.64c0,12-12.28,13.56-17.83,13.56-5.73,0-18.38-1.82-18.38-13.74,0-13.74,17-14.29,21.11-14.29a52,52,0,0,1,10.56.91c0-9.28-4.55-13.92-14.56-13.92a43,43,0,0,0-12.56,2V25.79a41.44,41.44,0,0,1,12.83-2.09C430.64,23.7,436.37,30.16,436.37,42.17Zm-4.46,4a70.8,70.8,0,0,0-11.19-.82c-5.55,0-16.11,1.28-16.11,10.1,0,8.1,8.47,9.65,13.93,9.65s13.37-1.46,13.37-9.47Zm35.3,17.93v4.28a23.23,23.23,0,0,1-5.92.82c-3.37,0-11.55-.37-11.55-11.38V28.43h-7.1v-4h7.1V12h4.55V24.43H467v4H454.29V57.64c0,6,3.45,7.37,7.55,7.37A15.86,15.86,0,0,0,467.21,64.1Zm44.3-17.38a16.47,16.47,0,0,1-.09,2.37H477.48A11.74,11.74,0,0,0,478.3,53c1.27,8.55,7.28,11.83,15.83,11.83,5.37,0,10.74-1.09,14.38-3.09v4.64a37.07,37.07,0,0,1-14.74,2.82c-10,0-20.93-4.28-20.93-21.84,0-7,2.18-23.66,19.66-23.66C511.33,23.7,511.51,43.81,511.51,46.72Zm-34-1.64h29.39c0-2.18-.55-17.1-14.65-17.1C482.66,28,477.94,34.35,477.48,45.08Zm42.1-9.1a13,13,0,0,1,4-9.59q4-3.94,12.28-3.95a27.08,27.08,0,0,1,12.15,3v7.19a26.79,26.79,0,0,0-11.12-2.7q-9,0-9,5.8c0,1.27.8,2.33,2.4,3.17a29.87,29.87,0,0,0,5.77,2.21,66.44,66.44,0,0,1,6.76,2.31,13.4,13.4,0,0,1,5.8,4.54,13.42,13.42,0,0,1-1.71,17.35q-4.11,4-12.76,4A26.78,26.78,0,0,1,521,66.08V58.49a25.23,25.23,0,0,0,12.58,3.32h.18q4.35,0,6.64-1.57a4.73,4.73,0,0,0,2.29-4,5.31,5.31,0,0,0-2.38-4.5,18.61,18.61,0,0,0-5.8-2.66q-3.42-.95-6.82-2.13A13.22,13.22,0,0,1,522,43,10.3,10.3,0,0,1,519.58,36Zm40.79,49.86V37.06a16.66,16.66,0,0,1,.26-2.91A15.2,15.2,0,0,1,562,30.48a12.81,12.81,0,0,1,3-3.91,15.5,15.5,0,0,1,5.59-2.9,29.63,29.63,0,0,1,13.6-.78,17.87,17.87,0,0,1,5.28,2,16.94,16.94,0,0,1,5,4,20.12,20.12,0,0,1,3.48,7,35,35,0,0,1,1.4,10.42,32.09,32.09,0,0,1-1.84,11.53A15,15,0,0,1,592.32,65a22.43,22.43,0,0,1-6.59,3.31,25.73,25.73,0,0,1-7.39,1,34.36,34.36,0,0,1-9.67-1.33v17.9ZM568.68,60a26.38,26.38,0,0,0,9.66,1.82,18.47,18.47,0,0,0,4.79-.53,11,11,0,0,0,3.89-2,9.4,9.4,0,0,0,2.92-4.73,27.93,27.93,0,0,0,1-8.16,32.26,32.26,0,0,0-1-8.77,10.31,10.31,0,0,0-2.87-5.09,10.84,10.84,0,0,0-3.7-2.18,13.75,13.75,0,0,0-4.18-.57q-10.5,0-10.5,6.79Zm41.12-2.36a31.8,31.8,0,0,1-1.92-11.73,31.78,31.78,0,0,1,1.92-11.72A15.93,15.93,0,0,1,615,26.94a22.08,22.08,0,0,1,6.76-3.41,29.15,29.15,0,0,1,15.12,0,21.86,21.86,0,0,1,6.76,3.41,15.84,15.84,0,0,1,5.22,7.24A31.78,31.78,0,0,1,650.8,45.9a31.8,31.8,0,0,1-1.92,11.73,15.9,15.9,0,0,1-5.22,7.23,21.86,21.86,0,0,1-6.76,3.41,28.94,28.94,0,0,1-15.12,0A21.75,21.75,0,0,1,615,64.86,15.9,15.9,0,0,1,609.8,57.63Zm7.57-20.1a29.19,29.19,0,0,0-1,8.37,29.19,29.19,0,0,0,1,8.37,9.54,9.54,0,0,0,3,4.89,10.85,10.85,0,0,0,4,2.12,23.33,23.33,0,0,0,9.89,0,11,11,0,0,0,4-2.12,9.62,9.62,0,0,0,3-4.89,29.55,29.55,0,0,0,1-8.37,29.65,29.65,0,0,0-1-8.37,9.59,9.59,0,0,0-3-4.88,10.89,10.89,0,0,0-4-2.12,23.33,23.33,0,0,0-9.89,0,10.89,10.89,0,0,0-4,2.12,9.56,9.56,0,0,0-3,4.88Zm43.64,31V27a59.64,59.64,0,0,1,22.13-4.53v7.64A58.15,58.15,0,0,0,669.32,32V68.56Zm27.69-38.3v-7.1h7.91V9.69h8.31V23.16H717v7.1H704.92V56.51q0,5.3,6.7,5.3h.09A9.92,9.92,0,0,0,717,60.48V68a16.42,16.42,0,0,1-6.22,1.26h-.22a16.57,16.57,0,0,1-3.51-.4,22.63,22.63,0,0,1-4.47-1.57,9.53,9.53,0,0,1-4.29-4.08,14.18,14.18,0,0,1-1.68-7.2V30.26ZM59.85,46.49H46.49L26.58,26.59H39.94Z"/><polygon class="af8892f3-ea7c-4e04-b09c-98be404d2a69" points="0 92.98 13.36 92.98 33.26 73.08 19.91 73.08 0 92.98"/><polygon class="af8892f3-ea7c-4e04-b09c-98be404d2a69" points="53.17 39.81 66.53 39.81 86.42 19.91 73.07 19.91 53.17 39.81"/><polygon class="af8892f3-ea7c-4e04-b09c-98be404d2a69" points="0 39.81 13.36 39.81 33.26 19.91 19.9 19.91 0 39.81"/><path class="a63d9647-a574-407b-bc95-f4ae835558c6" d="M86.43,73.08H73.07l-19.9-19.9H66.53Zm-53.17,0H19.9L0,53.18H13.36ZM86.43,19.91H73.07L53.17,0H66.53Zm-53.17,0H19.9L0,0H13.36Z"/></g></svg>