<?xml version="1.0" standalone="no"?>
<!DOCTYPE svg PUBLIC "-//W3C//DTD SVG 20010904//EN"
 "http://www.w3.org/TR/2001/REC-SVG-20010904/DTD/svg10.dtd">
<svg version="1.0" xmlns="http://www.w3.org/2000/svg"
 width="512.000000pt" height="512.000000pt" viewBox="0 0 512.000000 512.000000"
 preserveAspectRatio="xMidYMid meet">

<g transform="translate(0.000000,512.000000) scale(0.100000,-0.100000)"
fill="#000000" stroke="none">
<path d="M2305 4900 c-201 -23 -425 -81 -625 -160 -427 -170 -811 -482 -1067
-865 -131 -196 -199 -335 -278 -567 -88 -257 -120 -457 -119 -753 0 -388 68
-680 239 -1030 337 -693 999 -1175 1770 -1291 166 -25 504 -25 670 0 344 52
685 183 971 374 546 365 918 948 1019 1597 22 143 30 425 16 575 -71 744 -487
1406 -1129 1794 -248 150 -530 255 -822 306 -142 25 -502 36 -645 20z m985
-1940 c0 -642 -2 -730 -15 -730 -8 0 -88 27 -177 59 -90 33 -246 90 -348 126
-767 275 -1465 536 -1465 549 0 10 16 16 1295 477 168 61 377 136 465 168 205
75 218 79 233 80 9 1 12 -151 12 -729z m-967 -555 c166 -47 408 -115 537 -151
129 -36 278 -78 330 -93 l95 -27 3 -358 2 -358 -26 6 c-14 4 -99 39 -187 77
-89 39 -211 92 -272 119 -60 26 -243 105 -405 175 -162 70 -319 137 -347 150
l-53 24 0 260 c0 170 4 261 10 261 6 0 146 -38 313 -85z"/>
</g>
</svg>
